<?xml version="1.0" encoding="UTF-8"?>
<svg xmlns="http://www.w3.org/2000/svg" xmlns:xlink="http://www.w3.org/1999/xlink" width="330.794" height="110.416" viewBox="0 0 330.794 110.416">
<defs>
<g>
<g id="glyph-0-0">
<path d="M 3.5 -3.140625 C 3.265625 -3.046875 3.125 -2.796875 3.125 -2.578125 C 3.125 -2.328125 3.3125 -2.171875 3.5625 -2.171875 C 3.859375 -2.171875 4.171875 -2.4375 4.171875 -2.828125 C 4.171875 -3.28125 3.71875 -3.59375 2.984375 -3.59375 C 1.34375 -3.59375 0.390625 -2.40625 0.390625 -1.34375 C 0.390625 0.078125 1.9375 0.078125 2.25 0.078125 C 2.5625 0.078125 3.0625 0.0625 3.515625 -0.078125 C 3.96875 -0.234375 4.328125 -0.546875 4.328125 -0.671875 C 4.328125 -0.765625 4.171875 -0.921875 4.09375 -0.921875 C 4.03125 -0.921875 4.015625 -0.890625 3.96875 -0.84375 C 3.765625 -0.671875 3.359375 -0.265625 2.234375 -0.265625 C 1.671875 -0.265625 1.375 -0.484375 1.375 -1 C 1.375 -1.328125 1.5625 -2.21875 1.828125 -2.625 C 2.109375 -3.0625 2.578125 -3.25 3 -3.25 C 3.0625 -3.25 3.296875 -3.25 3.5 -3.140625 Z M 3.5 -3.140625 "/>
</g>
<g id="glyph-0-1">
<path d="M 2.578125 -5.15625 C 2.609375 -5.265625 2.609375 -5.28125 2.609375 -5.328125 C 2.609375 -5.390625 2.5625 -5.5 2.421875 -5.5 C 2.375 -5.5 2.375 -5.5 2.359375 -5.484375 L 1.34375 -5.4375 C 1.234375 -5.4375 1.0625 -5.421875 1.0625 -5.1875 C 1.0625 -5.015625 1.21875 -5.015625 1.328125 -5.015625 C 1.453125 -5.015625 1.578125 -5.015625 1.578125 -4.984375 C 1.578125 -4.96875 1.5625 -4.921875 1.546875 -4.875 L 0.453125 -0.515625 C 0.4375 -0.4375 0.421875 -0.390625 0.421875 -0.3125 C 0.421875 -0.09375 0.609375 0.078125 0.828125 0.078125 C 1.03125 0.078125 1.25 -0.0625 1.34375 -0.28125 C 1.359375 -0.3125 1.453125 -0.671875 1.5 -0.875 L 1.6875 -1.609375 C 1.796875 -2.078125 1.796875 -2.09375 1.828125 -2.15625 C 1.859375 -2.296875 2.390625 -3.25 3.25 -3.25 C 3.578125 -3.25 3.6875 -3.078125 3.6875 -2.78125 C 3.6875 -2.328125 3.296875 -1.34375 3.171875 -1.03125 C 3.09375 -0.828125 3.078125 -0.765625 3.078125 -0.65625 C 3.078125 -0.171875 3.59375 0.078125 4.046875 0.078125 C 4.921875 0.078125 5.359375 -0.96875 5.359375 -1.171875 C 5.359375 -1.3125 5.21875 -1.3125 5.140625 -1.3125 C 4.96875 -1.3125 4.953125 -1.28125 4.90625 -1.15625 C 4.71875 -0.5 4.328125 -0.265625 4.09375 -0.265625 C 4.046875 -0.265625 3.953125 -0.265625 3.953125 -0.4375 C 3.953125 -0.609375 4.015625 -0.765625 4.09375 -0.953125 C 4.21875 -1.265625 4.59375 -2.1875 4.59375 -2.625 C 4.59375 -3.359375 4 -3.59375 3.3125 -3.59375 C 3 -3.59375 2.578125 -3.53125 2.046875 -3.078125 Z M 2.578125 -5.15625 "/>
</g>
<g id="glyph-0-2">
<path d="M 4.453125 -3.125 C 4.140625 -3.03125 4.015625 -2.75 4.015625 -2.546875 C 4.015625 -2.234375 4.234375 -2.125 4.4375 -2.125 C 4.75 -2.125 5.0625 -2.375 5.0625 -2.796875 C 5.0625 -3.328125 4.546875 -3.59375 4.09375 -3.59375 C 3.609375 -3.59375 3.34375 -3.296875 3.1875 -3.125 C 2.9375 -3.421875 2.5625 -3.59375 2.015625 -3.59375 C 0.9375 -3.59375 0.359375 -2.640625 0.359375 -2.34375 C 0.359375 -2.203125 0.484375 -2.203125 0.59375 -2.203125 C 0.75 -2.203125 0.765625 -2.203125 0.8125 -2.375 C 1.015625 -2.953125 1.5625 -3.25 1.96875 -3.25 C 2.25 -3.25 2.46875 -3.15625 2.46875 -2.859375 C 2.46875 -2.703125 2.359375 -2.3125 2.296875 -2.046875 L 2.046875 -1.015625 C 1.890625 -0.421875 1.5625 -0.265625 1.328125 -0.265625 C 1.296875 -0.265625 1.09375 -0.265625 0.9375 -0.390625 C 1.25 -0.484375 1.390625 -0.765625 1.390625 -0.96875 C 1.390625 -1.28125 1.15625 -1.390625 0.953125 -1.390625 C 0.65625 -1.390625 0.328125 -1.140625 0.328125 -0.71875 C 0.328125 -0.1875 0.859375 0.078125 1.3125 0.078125 C 1.796875 0.078125 2.046875 -0.21875 2.203125 -0.390625 C 2.453125 -0.09375 2.828125 0.078125 3.375 0.078125 C 4.453125 0.078125 5.03125 -0.875 5.03125 -1.171875 C 5.03125 -1.3125 4.875 -1.3125 4.8125 -1.3125 C 4.625 -1.3125 4.625 -1.28125 4.578125 -1.15625 C 4.375 -0.578125 3.828125 -0.265625 3.421875 -0.265625 C 3.140625 -0.265625 2.9375 -0.359375 2.9375 -0.671875 C 2.9375 -0.8125 3.03125 -1.203125 3.09375 -1.46875 L 3.34375 -2.5 C 3.5 -3.09375 3.828125 -3.25 4.078125 -3.25 C 4.109375 -3.25 4.296875 -3.25 4.453125 -3.125 Z M 4.453125 -3.125 "/>
</g>
<g id="glyph-1-0">
<path d="M 1.625 -0.609375 L 1.5625 -0.71875 L 1.296875 -0.53125 C 1.109375 -0.40625 0.984375 -0.34375 0.921875 -0.34375 C 0.859375 -0.34375 0.828125 -0.390625 0.828125 -0.46875 C 0.828125 -0.625 0.90625 -1.109375 1.09375 -2.015625 L 1.171875 -2.390625 L 1.84375 -2.390625 L 1.90625 -2.703125 C 1.671875 -2.671875 1.46875 -2.671875 1.234375 -2.671875 C 1.328125 -3.25 1.390625 -3.546875 1.5 -3.875 L 1.4375 -3.96875 C 1.3125 -3.890625 1.140625 -3.8125 0.953125 -3.75 L 0.796875 -2.703125 C 0.53125 -2.578125 0.375 -2.5 0.265625 -2.46875 L 0.25 -2.390625 L 0.765625 -2.390625 L 0.421875 -0.65625 C 0.390625 -0.5 0.34375 -0.34375 0.34375 -0.1875 C 0.34375 -0.03125 0.40625 0.0625 0.53125 0.0625 C 0.75 0.0625 0.953125 -0.0625 1.4375 -0.453125 C 1.546875 -0.546875 1.515625 -0.515625 1.625 -0.609375 Z M 1.625 -0.609375 "/>
</g>
<g id="glyph-2-0">
<path d="M 3.703125 -1.484375 L 3.703125 -1.84375 L 0.40625 -1.84375 L 0.40625 -1.484375 Z M 3.703125 -1.484375 "/>
</g>
<g id="glyph-3-0">
<path d="M 2.5625 0.015625 L 2.5625 -0.171875 L 2.25 -0.1875 C 1.90625 -0.203125 1.84375 -0.265625 1.84375 -0.59375 L 1.84375 -4.234375 L 1.765625 -4.265625 C 1.359375 -4.046875 0.921875 -3.875 0.375 -3.671875 L 0.40625 -3.40625 L 0.46875 -3.40625 C 0.75 -3.53125 1.015625 -3.65625 1.28125 -3.765625 C 1.3125 -3.765625 1.328125 -3.71875 1.328125 -3.5625 L 1.328125 -0.59375 C 1.328125 -0.265625 1.265625 -0.203125 0.9375 -0.1875 L 0.59375 -0.171875 L 0.59375 0.015625 C 0.921875 0 1.265625 0 1.609375 0 C 1.921875 0 2.25 0 2.5625 0.015625 Z M 2.5625 0.015625 "/>
</g>
<g id="glyph-4-0">
<path d="M 5.453125 -0.328125 L 3.359375 -2.421875 L 5.453125 -4.5 L 5.0625 -4.875 L 2.984375 -2.796875 L 0.90625 -4.875 L 0.53125 -4.5 L 2.609375 -2.421875 L 0.53125 -0.328125 L 0.90625 0.046875 L 2.984375 -2.046875 L 5.0625 0.046875 Z M 5.453125 -0.328125 "/>
</g>
<g id="glyph-4-1">
<path d="M 5.4375 -2.171875 L 5.4375 -2.671875 L 3.25 -2.671875 L 3.25 -4.859375 L 2.75 -4.859375 L 2.75 -2.671875 L 0.5625 -2.671875 L 0.5625 -2.171875 L 2.75 -2.171875 L 2.75 0.015625 L 3.25 0.015625 L 3.25 -2.171875 Z M 5.4375 -2.171875 "/>
</g>
<g id="glyph-5-0">
<path d="M 3.921875 -3.515625 L 5 -3.515625 C 5.140625 -3.515625 5.328125 -3.515625 5.328125 -3.78125 C 5.328125 -3.96875 5.171875 -3.96875 5.015625 -3.96875 L 4 -3.96875 L 4.28125 -5.546875 C 4.3125 -5.734375 4.328125 -5.734375 4.40625 -5.796875 C 4.5 -5.875 4.5625 -5.90625 4.671875 -5.90625 C 4.8125 -5.90625 4.859375 -5.890625 4.953125 -5.859375 C 4.6875 -5.703125 4.59375 -5.453125 4.59375 -5.265625 C 4.59375 -4.984375 4.796875 -4.828125 5.0625 -4.828125 C 5.390625 -4.828125 5.734375 -5.109375 5.734375 -5.53125 C 5.734375 -5.953125 5.3125 -6.265625 4.671875 -6.265625 C 4.1875 -6.265625 3.578125 -6.0625 3.28125 -5.34375 C 3.171875 -5.078125 3.125 -4.828125 3.09375 -4.625 L 2.96875 -3.96875 L 2.078125 -3.96875 C 1.90625 -3.96875 1.734375 -3.96875 1.734375 -3.703125 C 1.734375 -3.515625 1.890625 -3.515625 2.046875 -3.515625 L 2.90625 -3.515625 L 2.25 0.140625 C 2.21875 0.328125 2.125 0.828125 2.078125 0.96875 C 2.0625 1.015625 1.90625 1.453125 1.609375 1.453125 C 1.5 1.453125 1.421875 1.421875 1.34375 1.40625 C 1.609375 1.234375 1.703125 0.984375 1.703125 0.8125 C 1.703125 0.53125 1.5 0.359375 1.234375 0.359375 C 0.90625 0.359375 0.5625 0.640625 0.5625 1.078125 C 0.5625 1.53125 1.046875 1.796875 1.59375 1.796875 C 2.296875 1.796875 2.78125 1.109375 2.875 0.96875 C 3.234375 0.390625 3.421875 -0.734375 3.4375 -0.828125 Z M 3.921875 -3.515625 "/>
</g>
<g id="glyph-5-1">
<path d="M 3.078125 -5.75 C 3.078125 -5.96875 2.921875 -6.203125 2.609375 -6.203125 C 2.296875 -6.203125 1.9375 -5.90625 1.9375 -5.546875 C 1.9375 -5.265625 2.15625 -5.09375 2.40625 -5.09375 C 2.75 -5.09375 3.078125 -5.421875 3.078125 -5.75 Z M 0.984375 -1.21875 C 0.890625 -0.96875 0.859375 -0.875 0.859375 -0.734375 C 0.859375 -0.265625 1.328125 0.078125 1.90625 0.078125 C 2.859375 0.078125 3.34375 -1.109375 3.34375 -1.328125 C 3.34375 -1.46875 3.1875 -1.46875 3.109375 -1.46875 C 2.96875 -1.46875 2.921875 -1.453125 2.875 -1.328125 C 2.59375 -0.421875 2.171875 -0.28125 1.96875 -0.28125 C 1.90625 -0.28125 1.8125 -0.28125 1.8125 -0.484375 C 1.8125 -0.671875 1.875 -0.828125 2.03125 -1.21875 C 2.078125 -1.34375 2.296875 -1.875 2.359375 -2.03125 L 2.640625 -2.75 C 2.734375 -3 2.78125 -3.09375 2.78125 -3.234375 C 2.78125 -3.6875 2.3125 -4.03125 1.71875 -4.03125 C 0.78125 -4.03125 0.296875 -2.859375 0.296875 -2.640625 C 0.296875 -2.5 0.421875 -2.5 0.53125 -2.5 C 0.671875 -2.5 0.71875 -2.5 0.75 -2.625 C 1.03125 -3.546875 1.46875 -3.671875 1.671875 -3.671875 C 1.71875 -3.671875 1.8125 -3.671875 1.8125 -3.484375 C 1.8125 -3.296875 1.75 -3.140625 1.59375 -2.75 C 1.546875 -2.609375 1.34375 -2.078125 1.28125 -1.921875 Z M 0.984375 -1.21875 "/>
</g>
<g id="glyph-5-2">
<path d="M 1.5625 -0.875 C 1.90625 -1.203125 2.34375 -1.515625 2.796875 -1.859375 C 3.125 -2.09375 3.75 -2.5625 4.0625 -2.859375 C 4.546875 -3.3125 4.921875 -3.78125 4.921875 -3.890625 C 4.921875 -4.03125 4.765625 -4.03125 4.6875 -4.03125 C 4.515625 -4.03125 4.515625 -4.03125 4.421875 -3.875 C 4.25 -3.609375 4.0625 -3.4375 3.875 -3.4375 C 3.65625 -3.4375 3.421875 -3.59375 3.28125 -3.6875 C 2.984375 -3.890625 2.765625 -4.03125 2.4375 -4.03125 C 1.609375 -4.03125 1.09375 -3.234375 1.09375 -2.953125 C 1.09375 -2.8125 1.234375 -2.8125 1.328125 -2.8125 C 1.421875 -2.8125 1.46875 -2.8125 1.53125 -2.890625 C 1.5625 -2.9375 1.609375 -2.984375 1.859375 -3 C 2.1875 -3.03125 2.5 -3.015625 2.8125 -3.03125 C 3.6875 -3.09375 2.984375 -3.0625 3.71875 -3.09375 C 3.375 -2.765625 2.953125 -2.4375 2.484375 -2.09375 C 2.171875 -1.859375 1.53125 -1.390625 1.21875 -1.09375 C 0.75 -0.640625 0.375 -0.1875 0.375 -0.078125 C 0.375 0.078125 0.515625 0.078125 0.609375 0.078125 C 0.734375 0.078125 0.765625 0.078125 0.828125 -0.03125 C 1.125 -0.4375 1.46875 -0.515625 1.625 -0.515625 C 1.859375 -0.515625 2.078125 -0.390625 2.28125 -0.234375 C 2.671875 0.03125 2.875 0.078125 3.09375 0.078125 C 4.125 0.078125 4.796875 -1.015625 4.796875 -1.359375 C 4.796875 -1.5 4.640625 -1.5 4.578125 -1.5 C 4.46875 -1.5 4.40625 -1.5 4.359375 -1.390625 C 4.28125 -1.21875 4.1875 -1 3.375 -0.953125 C 3.25 -0.9375 2.96875 -0.953125 2.84375 -0.9375 C 1.875 -0.875 1.859375 -0.875 1.5625 -0.875 Z M 1.5625 -0.875 "/>
</g>
<g id="glyph-5-3">
<path d="M 5.234375 -2.46875 C 5.234375 -3.34375 4.625 -4.03125 3.296875 -4.03125 C 1.375 -4.03125 0.421875 -2.578125 0.421875 -1.484375 C 0.421875 -0.625 1.03125 0.078125 2.359375 0.078125 C 4.28125 0.078125 5.234375 -1.390625 5.234375 -2.46875 Z M 2.375 -0.28125 C 2.234375 -0.28125 1.96875 -0.296875 1.75 -0.484375 C 1.53125 -0.671875 1.5 -0.953125 1.5 -1.109375 C 1.5 -1.390625 1.71875 -2.546875 2.09375 -3.0625 C 2.4375 -3.546875 2.953125 -3.671875 3.28125 -3.671875 C 3.421875 -3.671875 3.6875 -3.65625 3.90625 -3.484375 C 4.125 -3.296875 4.15625 -3 4.15625 -2.859375 C 4.15625 -2.5625 3.9375 -1.40625 3.5625 -0.90625 C 3.21875 -0.421875 2.703125 -0.28125 2.375 -0.28125 Z M 2.375 -0.28125 "/>
</g>
<g id="glyph-6-0">
<path d="M 1.921875 -0.71875 L 1.84375 -0.84375 L 1.515625 -0.625 C 1.296875 -0.46875 1.171875 -0.40625 1.078125 -0.40625 C 1.015625 -0.40625 0.984375 -0.46875 0.984375 -0.546875 C 0.984375 -0.734375 1.078125 -1.296875 1.296875 -2.375 L 1.390625 -2.828125 L 2.15625 -2.828125 L 2.25 -3.1875 C 1.96875 -3.15625 1.71875 -3.140625 1.453125 -3.140625 C 1.5625 -3.8125 1.640625 -4.171875 1.765625 -4.5625 L 1.6875 -4.671875 C 1.546875 -4.59375 1.359375 -4.5 1.125 -4.40625 L 0.953125 -3.1875 C 0.625 -3.03125 0.4375 -2.953125 0.3125 -2.921875 L 0.296875 -2.828125 L 0.90625 -2.828125 L 0.5 -0.78125 C 0.46875 -0.59375 0.40625 -0.40625 0.40625 -0.21875 C 0.40625 -0.046875 0.484375 0.0625 0.625 0.0625 C 0.875 0.0625 1.125 -0.078125 1.6875 -0.53125 C 1.828125 -0.640625 1.78125 -0.609375 1.921875 -0.71875 Z M 1.921875 -0.71875 "/>
</g>
<g id="glyph-7-0">
<path d="M 2.84375 -3.890625 L 1.625 -3.84375 L 1.625 -4.171875 C 1.625 -4.546875 1.65625 -4.875 1.71875 -5.4375 L 1.609375 -5.546875 C 1.40625 -5.40625 1.140625 -5.296875 0.859375 -5.203125 C 0.890625 -4.9375 0.890625 -4.765625 0.890625 -4.5 L 0.890625 -3.875 L 0.203125 -3.5625 L 0.203125 -3.375 L 0.875 -3.40625 L 0.875 -0.84375 C 0.875 -0.171875 1.171875 0.109375 1.859375 0.109375 C 2.0625 0.109375 2.28125 0.0625 2.328125 0 L 2.75 -0.46875 L 2.640625 -0.625 C 2.421875 -0.5 2.28125 -0.453125 2.109375 -0.453125 C 1.765625 -0.453125 1.625 -0.640625 1.625 -1.078125 L 1.625 -3.40625 L 2.765625 -3.40625 Z M 2.84375 -3.890625 "/>
</g>
<g id="glyph-7-1">
<path d="M 4.203125 0.03125 L 4.203125 -0.234375 L 3.859375 -0.265625 C 3.640625 -0.265625 3.609375 -0.34375 3.609375 -0.78125 L 3.609375 -2.40625 C 3.609375 -3.71875 3.234375 -4.1875 2.1875 -4.1875 C 1.8125 -4.1875 1.453125 -4.09375 1.109375 -3.875 L 0.640625 -3.59375 L 0.640625 -3.015625 L 0.875 -2.953125 L 0.984375 -3.234375 C 1.171875 -3.65625 1.265625 -3.71875 1.671875 -3.71875 C 2.515625 -3.71875 2.859375 -3.375 2.890625 -2.5625 L 2 -2.40625 C 0.796875 -2.1875 0.28125 -1.765625 0.28125 -0.984375 C 0.28125 -0.296875 0.703125 0.109375 1.40625 0.109375 C 1.5625 0.109375 1.71875 0.078125 1.78125 0.03125 L 2.890625 -0.734375 L 2.84375 0.03125 C 3.078125 0.015625 3.3125 0 3.546875 0 C 3.765625 0 3.984375 0.015625 4.203125 0.03125 Z M 2.890625 -1.109375 C 2.625 -0.734375 2.0625 -0.40625 1.71875 -0.40625 C 1.359375 -0.40625 1.046875 -0.734375 1.046875 -1.109375 C 1.046875 -1.453125 1.234375 -1.75 1.5 -1.921875 C 1.71875 -2.0625 2.21875 -2.1875 2.890625 -2.28125 Z M 2.890625 -1.109375 "/>
</g>
<g id="glyph-7-2">
<path d="M 5.109375 0.03125 L 5.109375 -0.234375 L 4.734375 -0.265625 C 4.4375 -0.28125 4.40625 -0.34375 4.40625 -0.90625 L 4.40625 -2.625 C 4.40625 -3.671875 3.921875 -4.1875 2.921875 -4.1875 C 2.59375 -4.1875 2.40625 -4.125 2.21875 -3.96875 L 1.53125 -3.375 L 1.53125 -4.15625 L 1.453125 -4.1875 C 1 -4 0.53125 -3.875 0.0625 -3.8125 L 0.0625 -3.5625 L 0.390625 -3.5625 C 0.75 -3.5625 0.78125 -3.5 0.78125 -2.921875 L 0.78125 -0.90625 C 0.78125 -0.34375 0.765625 -0.28125 0.453125 -0.265625 L 0.046875 -0.234375 L 0.046875 0.03125 C 0.421875 0.015625 0.796875 0 1.15625 0 C 1.53125 0 1.90625 0.015625 2.265625 0.03125 L 2.265625 -0.234375 L 1.859375 -0.265625 C 1.5625 -0.28125 1.53125 -0.34375 1.53125 -0.90625 L 1.53125 -2.796875 C 1.53125 -3.203125 2.125 -3.640625 2.671875 -3.640625 C 3.265625 -3.640625 3.65625 -3.1875 3.65625 -2.5 L 3.65625 0.03125 C 3.890625 0.015625 4.125 0 4.359375 0 C 4.609375 0 4.859375 0.015625 5.109375 0.03125 Z M 5.109375 0.03125 "/>
</g>
<g id="glyph-7-3">
<path d="M 5.109375 0.03125 L 5.109375 -0.234375 L 4.734375 -0.265625 C 4.4375 -0.28125 4.40625 -0.34375 4.40625 -0.90625 L 4.40625 -2.625 C 4.40625 -3.671875 3.921875 -4.1875 2.921875 -4.1875 C 2.59375 -4.1875 2.40625 -4.125 2.21875 -3.96875 L 1.53125 -3.375 L 1.53125 -6.40625 L 1.453125 -6.484375 C 1.0625 -6.328125 0.765625 -6.25 0.0625 -6.140625 L 0.0625 -5.890625 L 0.5625 -5.890625 C 0.71875 -5.890625 0.78125 -5.796875 0.78125 -5.53125 L 0.78125 -0.90625 C 0.78125 -0.34375 0.765625 -0.28125 0.453125 -0.265625 L 0.046875 -0.234375 L 0.046875 0.03125 C 0.421875 0.015625 0.796875 0 1.15625 0 C 1.53125 0 1.90625 0.015625 2.265625 0.03125 L 2.265625 -0.234375 L 1.859375 -0.265625 C 1.5625 -0.28125 1.53125 -0.34375 1.53125 -0.90625 L 1.53125 -2.796875 C 1.53125 -3.203125 2.125 -3.640625 2.671875 -3.640625 C 3.265625 -3.640625 3.65625 -3.1875 3.65625 -2.5 L 3.65625 0.03125 C 3.890625 0.015625 4.125 0 4.359375 0 C 4.609375 0 4.859375 0.015625 5.109375 0.03125 Z M 5.109375 0.03125 "/>
</g>
<g id="glyph-8-0">
<path d="M 1.734375 -0.859375 L 1.609375 -0.96875 C 1.40625 -0.90625 1.265625 -0.859375 0.84375 -0.734375 C 0.78125 -0.140625 0.59375 0.375 0.125 1.140625 L 0.234375 1.234375 L 0.5625 1.078125 C 1.203125 0.25 1.5 -0.25 1.734375 -0.859375 Z M 1.734375 -0.859375 "/>
</g>
</g>
<clipPath id="clip-0">
<path clip-rule="nonzero" d="M 56 0 L 294 0 L 294 109.835938 L 56 109.835938 Z M 56 0 "/>
</clipPath>
</defs>
<g clip-path="url(#clip-0)">
<path fill="none" stroke-width="0.3985" stroke-linecap="butt" stroke-linejoin="miter" stroke="rgb(41.96167%, 41.96167%, 41.96167%)" stroke-opacity="1" stroke-miterlimit="10" d="M -0.00177621 3.987031 L -0.00177621 98.064026 C -0.00177621 100.263096 1.784968 102.04984 3.984038 102.04984 L 222.787564 102.04984 C 224.990561 102.04984 226.773378 100.263096 226.773378 98.064026 L 226.773378 3.987031 C 226.773378 1.784034 224.990561 0.0012171 222.787564 0.0012171 L 3.984038 0.0012171 C 1.784968 0.0012171 -0.00177621 1.784034 -0.00177621 3.987031 Z M -0.00177621 3.987031 " transform="matrix(0.994739, 0, 0, -0.994739, 62.103329, 105.673086)"/>
</g>
<path fill="none" stroke-width="1.19553" stroke-linecap="butt" stroke-linejoin="miter" stroke="rgb(12.156677%, 35.293579%, 54.902649%)" stroke-opacity="1" stroke-miterlimit="10" d="M -22.675757 85.038464 L 245.677526 85.038464 " transform="matrix(0.994739, 0, 0, -0.994739, 62.103329, 105.673086)"/>
<path fill-rule="nonzero" fill="rgb(12.156677%, 35.293579%, 54.902649%)" fill-opacity="1" stroke-width="1.05237" stroke-linecap="butt" stroke-linejoin="miter" stroke="rgb(12.156677%, 35.293579%, 54.902649%)" stroke-opacity="1" stroke-miterlimit="10" d="M 4.739424 -0.00195598 L 1.699995 1.156483 L 2.724919 -0.00195598 L 1.699995 -1.156468 Z M 4.739424 -0.00195598 " transform="matrix(0.994739, 0, 0, -0.994739, 304.039418, 21.080086)"/>
<g fill="rgb(41.96167%, 41.96167%, 41.96167%)" fill-opacity="1">
<use xlink:href="#glyph-0-0" x="43.583284" y="16.181415"/>
</g>
<g fill="rgb(41.96167%, 41.96167%, 41.96167%)" fill-opacity="1">
<use xlink:href="#glyph-1-0" x="47.97406" y="17.521328"/>
</g>
<g fill="rgb(41.96167%, 41.96167%, 41.96167%)" fill-opacity="1">
<use xlink:href="#glyph-2-0" x="50.388771" y="17.521328"/>
</g>
<g fill="rgb(41.96167%, 41.96167%, 41.96167%)" fill-opacity="1">
<use xlink:href="#glyph-3-0" x="54.499309" y="17.521328"/>
</g>
<g fill="rgb(41.96167%, 41.96167%, 41.96167%)" fill-opacity="1">
<use xlink:href="#glyph-0-0" x="298.128969" y="16.331621"/>
</g>
<g fill="rgb(41.96167%, 41.96167%, 41.96167%)" fill-opacity="1">
<use xlink:href="#glyph-1-0" x="302.519746" y="17.521328"/>
</g>
<path fill-rule="nonzero" fill="rgb(100%, 100%, 100%)" fill-opacity="1" stroke-width="0.3985" stroke-linecap="butt" stroke-linejoin="miter" stroke="rgb(9.725952%, 28.234863%, 43.920898%)" stroke-opacity="1" stroke-miterlimit="10" d="M 65.196719 85.038464 C 65.196719 89.738976 61.391543 93.544152 56.694958 93.544152 C 51.998373 93.544152 48.189269 89.738976 48.189269 85.038464 C 48.189269 80.341879 51.998373 76.536703 56.694958 76.536703 C 61.391543 76.536703 65.196719 80.341879 65.196719 85.038464 Z M 65.196719 85.038464 " transform="matrix(0.994739, 0, 0, -0.994739, 62.103329, 105.673086)"/>
<g fill="rgb(0%, 0%, 0%)" fill-opacity="1">
<use xlink:href="#glyph-4-0" x="115.514831" y="23.386308"/>
</g>
<path fill-rule="nonzero" fill="rgb(100%, 100%, 100%)" fill-opacity="1" stroke-width="0.3985" stroke-linecap="butt" stroke-linejoin="miter" stroke="rgb(9.725952%, 28.234863%, 43.920898%)" stroke-opacity="1" stroke-miterlimit="10" d="M 133.230443 85.038464 C 133.230443 89.738976 129.42134 93.544152 124.724755 93.544152 C 120.02817 93.544152 116.222994 89.738976 116.222994 85.038464 C 116.222994 80.341879 120.02817 76.536703 124.724755 76.536703 C 129.42134 76.536703 133.230443 80.341879 133.230443 85.038464 Z M 133.230443 85.038464 " transform="matrix(0.994739, 0, 0, -0.994739, 62.103329, 105.673086)"/>
<g fill="rgb(0%, 0%, 0%)" fill-opacity="1">
<use xlink:href="#glyph-4-1" x="183.187902" y="23.386308"/>
</g>
<path fill-rule="nonzero" fill="rgb(98.023987%, 95.199585%, 92.939758%)" fill-opacity="1" stroke-width="0.3985" stroke-linecap="butt" stroke-linejoin="miter" stroke="rgb(60.235596%, 31.997681%, 9.411621%)" stroke-opacity="1" stroke-miterlimit="10" d="M 66.041005 43.935492 L 47.348911 43.935492 C 46.245449 43.935492 45.35404 43.044083 45.35404 41.944548 L 45.35404 26.087684 C 45.35404 24.988149 46.245449 24.092813 47.348911 24.092813 L 66.041005 24.092813 C 67.14054 24.092813 68.031948 24.988149 68.031948 26.087684 L 68.031948 41.944548 C 68.031948 43.044083 67.14054 43.935492 66.041005 43.935492 Z M 66.041005 43.935492 " transform="matrix(0.994739, 0, 0, -0.994739, 62.103329, 105.673086)"/>
<g fill="rgb(0%, 0%, 0%)" fill-opacity="1">
<use xlink:href="#glyph-5-0" x="114.176908" y="74.066257"/>
</g>
<g fill="rgb(0%, 0%, 0%)" fill-opacity="1">
<use xlink:href="#glyph-6-0" x="119.480855" y="75.471823"/>
</g>
<path fill-rule="nonzero" fill="rgb(98.023987%, 95.199585%, 92.939758%)" fill-opacity="1" stroke-width="0.3985" stroke-linecap="butt" stroke-linejoin="miter" stroke="rgb(60.235596%, 31.997681%, 9.411621%)" stroke-opacity="1" stroke-miterlimit="10" d="M 108.561592 43.935492 L 89.869498 43.935492 C 88.766036 43.935492 87.874627 43.044083 87.874627 41.944548 L 87.874627 26.087684 C 87.874627 24.988149 88.766036 24.092813 89.869498 24.092813 L 108.561592 24.092813 C 109.661126 24.092813 110.552535 24.988149 110.552535 26.087684 L 110.552535 41.944548 C 110.552535 43.044083 109.661126 43.935492 108.561592 43.935492 Z M 108.561592 43.935492 " transform="matrix(0.994739, 0, 0, -0.994739, 62.103329, 105.673086)"/>
<g fill="rgb(0%, 0%, 0%)" fill-opacity="1">
<use xlink:href="#glyph-5-1" x="157.2292" y="74.195573"/>
</g>
<g fill="rgb(0%, 0%, 0%)" fill-opacity="1">
<use xlink:href="#glyph-6-0" x="161.021144" y="75.602134"/>
</g>
<path fill-rule="nonzero" fill="rgb(95.324707%, 93.911743%, 96.829224%)" fill-opacity="1" stroke-width="0.3985" stroke-linecap="butt" stroke-linejoin="miter" stroke="rgb(33.253479%, 19.137573%, 48.313904%)" stroke-opacity="1" stroke-miterlimit="10" d="M 148.246949 43.935492 L 129.554855 43.935492 C 128.451393 43.935492 127.559985 43.044083 127.559985 41.944548 L 127.559985 26.087684 C 127.559985 24.988149 128.451393 24.092813 129.554855 24.092813 L 148.246949 24.092813 C 149.346484 24.092813 150.237893 24.988149 150.237893 26.087684 L 150.237893 41.944548 C 150.237893 43.044083 149.346484 43.935492 148.246949 43.935492 Z M 148.246949 43.935492 " transform="matrix(0.994739, 0, 0, -0.994739, 62.103329, 105.673086)"/>
<g fill="rgb(0%, 0%, 0%)" fill-opacity="1">
<use xlink:href="#glyph-5-2" x="196.017048" y="73.080471"/>
</g>
<g fill="rgb(0%, 0%, 0%)" fill-opacity="1">
<use xlink:href="#glyph-6-0" x="201.184716" y="74.487031"/>
</g>
<path fill-rule="nonzero" fill="rgb(91.215515%, 93.528748%, 95.489502%)" fill-opacity="1" stroke-width="0.3985" stroke-linecap="butt" stroke-linejoin="miter" stroke="rgb(9.725952%, 28.234863%, 43.920898%)" stroke-opacity="1" stroke-miterlimit="10" d="M 133.230443 59.529253 C 133.230443 64.225838 129.42134 68.031015 124.724755 68.031015 C 120.02817 68.031015 116.222994 64.225838 116.222994 59.529253 C 116.222994 54.832668 120.02817 51.023565 124.724755 51.023565 C 129.42134 51.023565 133.230443 54.832668 133.230443 59.529253 Z M 133.230443 59.529253 " transform="matrix(0.994739, 0, 0, -0.994739, 62.103329, 105.673086)"/>
<g fill="rgb(0%, 0%, 0%)" fill-opacity="1">
<use xlink:href="#glyph-4-0" x="183.187902" y="48.764082"/>
</g>
<path fill-rule="nonzero" fill="rgb(98.023987%, 95.199585%, 92.939758%)" fill-opacity="1" stroke-width="0.3985" stroke-linecap="butt" stroke-linejoin="miter" stroke="rgb(60.235596%, 31.997681%, 9.411621%)" stroke-opacity="1" stroke-miterlimit="10" d="M 190.763609 43.935492 L 172.071515 43.935492 C 170.97198 43.935492 170.080571 43.044083 170.080571 41.944548 L 170.080571 26.087684 C 170.080571 24.988149 170.97198 24.092813 172.071515 24.092813 L 190.763609 24.092813 C 191.867071 24.092813 192.75848 24.988149 192.75848 26.087684 L 192.75848 41.944548 C 192.75848 43.044083 191.867071 43.935492 190.763609 43.935492 Z M 190.763609 43.935492 " transform="matrix(0.994739, 0, 0, -0.994739, 62.103329, 105.673086)"/>
<g fill="rgb(0%, 0%, 0%)" fill-opacity="1">
<use xlink:href="#glyph-5-3" x="238.179049" y="73.080471"/>
</g>
<g fill="rgb(0%, 0%, 0%)" fill-opacity="1">
<use xlink:href="#glyph-6-0" x="243.615297" y="74.487031"/>
</g>
<path fill-rule="nonzero" fill="rgb(92.971802%, 94.822693%, 96.392822%)" fill-opacity="1" stroke-width="0.3985" stroke-linecap="butt" stroke-linejoin="miter" stroke="rgb(9.725952%, 28.234863%, 43.920898%)" stroke-opacity="1" stroke-miterlimit="10" d="M 216.276747 75.119088 L 191.914194 75.119088 C 190.814659 75.119088 189.92325 74.227679 189.92325 73.128144 L 189.92325 57.267353 C 189.92325 56.167818 190.814659 55.276409 191.914194 55.276409 L 216.276747 55.276409 C 217.380208 55.276409 218.271617 56.167818 218.271617 57.267353 L 218.271617 73.128144 C 218.271617 74.227679 217.380208 75.119088 216.276747 75.119088 Z M 216.276747 75.119088 " transform="matrix(0.994739, 0, 0, -0.994739, 62.103329, 105.673086)"/>
<g fill="rgb(0%, 0%, 0%)" fill-opacity="1">
<use xlink:href="#glyph-7-0" x="256.249473" y="44.012215"/>
<use xlink:href="#glyph-7-1" x="259.157141" y="44.012215"/>
<use xlink:href="#glyph-7-2" x="263.616753" y="44.012215"/>
<use xlink:href="#glyph-7-3" x="268.807743" y="44.012215"/>
</g>
<path fill-rule="nonzero" fill="rgb(91.215515%, 93.528748%, 95.489502%)" fill-opacity="1" stroke-width="0.3985" stroke-linecap="butt" stroke-linejoin="miter" stroke="rgb(9.725952%, 28.234863%, 43.920898%)" stroke-opacity="1" stroke-miterlimit="10" d="M 212.601158 34.016116 C 212.601158 38.712701 208.792055 42.521804 204.09547 42.521804 C 199.398885 42.521804 195.593709 38.712701 195.593709 34.016116 C 195.593709 29.319531 199.398885 25.510428 204.09547 25.510428 C 208.792055 25.510428 212.601158 29.319531 212.601158 34.016116 Z M 212.601158 34.016116 " transform="matrix(0.994739, 0, 0, -0.994739, 62.103329, 105.673086)"/>
<g fill="rgb(0%, 0%, 0%)" fill-opacity="1">
<use xlink:href="#glyph-4-0" x="262.140316" y="74.141857"/>
</g>
<path fill="none" stroke-width="0.79701" stroke-linecap="butt" stroke-linejoin="miter" stroke="rgb(41.96167%, 41.96167%, 41.96167%)" stroke-opacity="1" stroke-miterlimit="10" d="M 56.694958 44.135764 L 56.694958 72.456643 " transform="matrix(0.994739, 0, 0, -0.994739, 62.103329, 105.673086)"/>
<path fill-rule="nonzero" fill="rgb(41.96167%, 41.96167%, 41.96167%)" fill-opacity="1" stroke-width="0.79701" stroke-linecap="butt" stroke-linejoin="miter" stroke="rgb(41.96167%, 41.96167%, 41.96167%)" stroke-opacity="1" stroke-miterlimit="10" d="M 5.100693 -0.00133761 L 1.287663 1.443765 L 2.552128 -0.00133761 L 1.287663 -1.442514 Z M 5.100693 -0.00133761 " transform="matrix(0, -0.994739, -0.994739, 0, 118.498669, 35.941045)"/>
<path fill="none" stroke-width="0.79701" stroke-linecap="butt" stroke-linejoin="miter" stroke="rgb(41.96167%, 41.96167%, 41.96167%)" stroke-opacity="1" stroke-miterlimit="10" d="M 99.215545 44.135764 L 99.215545 59.529253 L 112.142934 59.529253 " transform="matrix(0.994739, 0, 0, -0.994739, 62.103329, 105.673086)"/>
<path fill-rule="nonzero" fill="rgb(41.96167%, 41.96167%, 41.96167%)" fill-opacity="1" stroke-width="0.79701" stroke-linecap="butt" stroke-linejoin="miter" stroke="rgb(41.96167%, 41.96167%, 41.96167%)" stroke-opacity="1" stroke-miterlimit="10" d="M 5.101624 0.000793399 L 1.288594 1.44197 L 2.553059 0.000793399 L 1.288594 -1.44431 Z M 5.101624 0.000793399 " transform="matrix(0.994739, 0, 0, -0.994739, 171.311935, 46.45782)"/>
<path fill="none" stroke-width="0.79701" stroke-linecap="butt" stroke-linejoin="miter" stroke="rgb(41.96167%, 41.96167%, 41.96167%)" stroke-opacity="1" stroke-miterlimit="10" d="M 138.900902 44.135764 L 138.900902 59.529253 L 137.310503 59.529253 " transform="matrix(0.994739, 0, 0, -0.994739, 62.103329, 105.673086)"/>
<path fill-rule="nonzero" fill="rgb(41.96167%, 41.96167%, 41.96167%)" fill-opacity="1" stroke-width="0.79701" stroke-linecap="butt" stroke-linejoin="miter" stroke="rgb(41.96167%, 41.96167%, 41.96167%)" stroke-opacity="1" stroke-miterlimit="10" d="M 5.099747 -0.000793399 L 1.286717 1.44431 L 2.555109 -0.000793399 L 1.286717 -1.44197 Z M 5.099747 -0.000793399 " transform="matrix(-0.994739, 0, 0, 0.994739, 201.033854, 46.45782)"/>
<path fill="none" stroke-width="0.79701" stroke-linecap="butt" stroke-linejoin="miter" stroke="rgb(41.96167%, 41.96167%, 41.96167%)" stroke-opacity="1" stroke-miterlimit="10" d="M 124.724755 68.231287 L 124.724755 72.456643 " transform="matrix(0.994739, 0, 0, -0.994739, 62.103329, 105.673086)"/>
<path fill-rule="nonzero" fill="rgb(41.96167%, 41.96167%, 41.96167%)" fill-opacity="1" stroke-width="0.79701" stroke-linecap="butt" stroke-linejoin="miter" stroke="rgb(41.96167%, 41.96167%, 41.96167%)" stroke-opacity="1" stroke-miterlimit="10" d="M 5.100693 0.00102485 L 1.287663 1.442201 L 2.552128 0.00102485 L 1.287663 -1.444078 Z M 5.100693 0.00102485 " transform="matrix(0, -0.994739, -0.994739, 0, 186.172894, 35.941045)"/>
<path fill="none" stroke-width="0.79701" stroke-linecap="butt" stroke-linejoin="miter" stroke="rgb(41.96167%, 41.96167%, 41.96167%)" stroke-opacity="1" stroke-miterlimit="10" d="M 204.09547 85.038464 L 204.09547 79.199148 " transform="matrix(0.994739, 0, 0, -0.994739, 62.103329, 105.673086)"/>
<path fill-rule="nonzero" fill="rgb(41.96167%, 41.96167%, 41.96167%)" fill-opacity="1" stroke-width="0.79701" stroke-linecap="butt" stroke-linejoin="miter" stroke="rgb(41.96167%, 41.96167%, 41.96167%)" stroke-opacity="1" stroke-miterlimit="10" d="M 5.100402 -0.00146978 L 1.287372 1.443633 L 2.555764 -0.00146978 L 1.287372 -1.442646 Z M 5.100402 -0.00146978 " transform="matrix(0, 0.994739, 0.994739, 0, 265.126462, 24.547526)"/>
<path fill="none" stroke-width="0.79701" stroke-linecap="butt" stroke-linejoin="miter" stroke="rgb(41.96167%, 41.96167%, 41.96167%)" stroke-opacity="1" stroke-miterlimit="10" d="M 204.09547 55.076137 L 204.09547 46.601864 " transform="matrix(0.994739, 0, 0, -0.994739, 62.103329, 105.673086)"/>
<path fill-rule="nonzero" fill="rgb(41.96167%, 41.96167%, 41.96167%)" fill-opacity="1" stroke-width="0.79701" stroke-linecap="butt" stroke-linejoin="miter" stroke="rgb(41.96167%, 41.96167%, 41.96167%)" stroke-opacity="1" stroke-miterlimit="10" d="M 5.102613 -0.00146978 L 1.285656 1.443633 L 2.554048 -0.00146978 L 1.285656 -1.442646 Z M 5.102613 -0.00146978 " transform="matrix(0, 0.994739, 0.994739, 0, 265.126462, 56.975014)"/>
<path fill="none" stroke-width="0.79701" stroke-linecap="butt" stroke-linejoin="miter" stroke="rgb(41.96167%, 41.96167%, 41.96167%)" stroke-opacity="1" stroke-miterlimit="10" d="M 192.958752 34.016116 L 191.513649 34.016116 " transform="matrix(0.994739, 0, 0, -0.994739, 62.103329, 105.673086)"/>
<path fill-rule="nonzero" fill="rgb(41.96167%, 41.96167%, 41.96167%)" fill-opacity="1" stroke-width="0.79701" stroke-linecap="butt" stroke-linejoin="miter" stroke="rgb(41.96167%, 41.96167%, 41.96167%)" stroke-opacity="1" stroke-miterlimit="10" d="M 5.101179 0.0000358664 L 1.288149 1.445139 L 2.552614 0.0000358664 L 1.288149 -1.445067 Z M 5.101179 0.0000358664 " transform="matrix(0.994739, 0, 0, -0.994739, 250.265503, 71.835973)"/>
<path fill="none" stroke-width="0.79701" stroke-linecap="butt" stroke-linejoin="miter" stroke="rgb(41.96167%, 41.96167%, 41.96167%)" stroke-opacity="1" stroke-miterlimit="10" d="M 212.801431 34.016116 L 245.571499 34.016116 " transform="matrix(0.994739, 0, 0, -0.994739, 62.103329, 105.673086)"/>
<path fill-rule="nonzero" fill="rgb(41.96167%, 41.96167%, 41.96167%)" fill-opacity="1" stroke-width="0.79701" stroke-linecap="butt" stroke-linejoin="miter" stroke="rgb(41.96167%, 41.96167%, 41.96167%)" stroke-opacity="1" stroke-miterlimit="10" d="M 5.100699 0.0000358664 L 1.287669 1.445139 L 2.552134 0.0000358664 L 1.287669 -1.445067 Z M 5.100699 0.0000358664 " transform="matrix(0.994739, 0, 0, -0.994739, 304.039418, 71.835973)"/>
<g fill="rgb(41.96167%, 41.96167%, 41.96167%)" fill-opacity="1">
<use xlink:href="#glyph-0-1" x="313.939346" y="73.964794"/>
</g>
<g fill="rgb(41.96167%, 41.96167%, 41.96167%)" fill-opacity="1">
<use xlink:href="#glyph-1-0" x="319.643178" y="75.154501"/>
</g>
<path fill="none" stroke-width="0.3985" stroke-linecap="butt" stroke-linejoin="miter" stroke="rgb(41.96167%, 41.96167%, 41.96167%)" stroke-opacity="1" stroke-miterlimit="10" d="M -22.675757 11.338208 L 177.372844 11.338208 " transform="matrix(0.994739, 0, 0, -0.994739, 62.103329, 105.673086)"/>
<path fill-rule="nonzero" fill="rgb(41.96167%, 41.96167%, 41.96167%)" fill-opacity="1" stroke-width="0.3985" stroke-linecap="butt" stroke-linejoin="miter" stroke="rgb(41.96167%, 41.96167%, 41.96167%)" stroke-opacity="1" stroke-miterlimit="10" d="M 5.668967 -0.000342283 L 0.642522 1.892429 L 2.291824 -0.000342283 L 0.642522 -1.889186 Z M 5.668967 -0.000342283 " transform="matrix(0.994739, 0, 0, -0.994739, 236.364765, 94.394191)"/>
<g fill="rgb(41.96167%, 41.96167%, 41.96167%)" fill-opacity="1">
<use xlink:href="#glyph-0-2" x="8.034305" y="96.447879"/>
</g>
<g fill="rgb(41.96167%, 41.96167%, 41.96167%)" fill-opacity="1">
<use xlink:href="#glyph-1-0" x="13.637669" y="97.637586"/>
</g>
<g fill="rgb(41.96167%, 41.96167%, 41.96167%)" fill-opacity="1">
<use xlink:href="#glyph-8-0" x="16.786017" y="96.447879"/>
</g>
<g fill="rgb(41.96167%, 41.96167%, 41.96167%)" fill-opacity="1">
<use xlink:href="#glyph-0-1" x="20.250626" y="96.447879"/>
</g>
<g fill="rgb(41.96167%, 41.96167%, 41.96167%)" fill-opacity="1">
<use xlink:href="#glyph-1-0" x="25.951539" y="97.787792"/>
</g>
<g fill="rgb(41.96167%, 41.96167%, 41.96167%)" fill-opacity="1">
<use xlink:href="#glyph-2-0" x="28.36625" y="97.787792"/>
</g>
<g fill="rgb(41.96167%, 41.96167%, 41.96167%)" fill-opacity="1">
<use xlink:href="#glyph-3-0" x="32.476788" y="97.787792"/>
</g>
<path fill="none" stroke-width="0.3985" stroke-linecap="butt" stroke-linejoin="miter" stroke="rgb(41.96167%, 41.96167%, 41.96167%)" stroke-opacity="1" stroke-miterlimit="10" d="M 56.694958 11.338208 L 56.694958 20.048095 " transform="matrix(0.994739, 0, 0, -0.994739, 62.103329, 105.673086)"/>
<path fill-rule="nonzero" fill="rgb(41.96167%, 41.96167%, 41.96167%)" fill-opacity="1" stroke-width="0.3985" stroke-linecap="butt" stroke-linejoin="miter" stroke="rgb(41.96167%, 41.96167%, 41.96167%)" stroke-opacity="1" stroke-miterlimit="10" d="M 5.668668 -0.00133761 L 0.642222 1.891433 L 2.291525 -0.00133761 L 0.642222 -1.890182 Z M 5.668668 -0.00133761 " transform="matrix(0, -0.994739, -0.994739, 0, 118.498669, 87.908375)"/>
<path fill="none" stroke-width="0.3985" stroke-linecap="butt" stroke-linejoin="miter" stroke="rgb(41.96167%, 41.96167%, 41.96167%)" stroke-opacity="1" stroke-miterlimit="10" d="M 99.215545 11.338208 L 99.215545 20.048095 " transform="matrix(0.994739, 0, 0, -0.994739, 62.103329, 105.673086)"/>
<path fill-rule="nonzero" fill="rgb(41.96167%, 41.96167%, 41.96167%)" fill-opacity="1" stroke-width="0.3985" stroke-linecap="butt" stroke-linejoin="miter" stroke="rgb(41.96167%, 41.96167%, 41.96167%)" stroke-opacity="1" stroke-miterlimit="10" d="M 5.668668 -0.00172453 L 0.642222 1.891046 L 2.291525 -0.00172453 L 0.642222 -1.890568 Z M 5.668668 -0.00172453 " transform="matrix(0, -0.994739, -0.994739, 0, 160.79516, 87.908375)"/>
<path fill="none" stroke-width="0.3985" stroke-linecap="butt" stroke-linejoin="miter" stroke="rgb(41.96167%, 41.96167%, 41.96167%)" stroke-opacity="1" stroke-miterlimit="10" d="M 138.900902 11.338208 L 138.900902 20.048095 " transform="matrix(0.994739, 0, 0, -0.994739, 62.103329, 105.673086)"/>
<path fill-rule="nonzero" fill="rgb(41.96167%, 41.96167%, 41.96167%)" fill-opacity="1" stroke-width="0.3985" stroke-linecap="butt" stroke-linejoin="miter" stroke="rgb(41.96167%, 41.96167%, 41.96167%)" stroke-opacity="1" stroke-miterlimit="10" d="M 5.668668 -0.00173207 L 0.642222 1.891039 L 2.291525 -0.00173207 L 0.642222 -1.890576 Z M 5.668668 -0.00173207 " transform="matrix(0, -0.994739, -0.994739, 0, 200.271715, 87.908375)"/>
<path fill="none" stroke-width="0.3985" stroke-linecap="butt" stroke-linejoin="miter" stroke="rgb(41.96167%, 41.96167%, 41.96167%)" stroke-opacity="1" stroke-miterlimit="10" d="M 181.417562 11.338208 L 181.417562 20.048095 " transform="matrix(0.994739, 0, 0, -0.994739, 62.103329, 105.673086)"/>
<path fill-rule="nonzero" fill="rgb(41.96167%, 41.96167%, 41.96167%)" fill-opacity="1" stroke-width="0.3985" stroke-linecap="butt" stroke-linejoin="miter" stroke="rgb(41.96167%, 41.96167%, 41.96167%)" stroke-opacity="1" stroke-miterlimit="10" d="M 5.668668 0.00183793 L 0.642222 1.890682 L 2.291525 0.00183793 L 0.642222 -1.890933 Z M 5.668668 0.00183793 " transform="matrix(0, -0.994739, -0.994739, 0, 242.568235, 87.908375)"/>
</svg>
